<?xml version="1.0" encoding="utf-8"?>
<!-- Generator: Adobe Illustrator 24.1.1, SVG Export Plug-In . SVG Version: 6.00 Build 0)  -->
<svg version="1.1" xmlns="http://www.w3.org/2000/svg" xmlns:xlink="http://www.w3.org/1999/xlink" x="0px" y="0px"
	 viewBox="0 0 100 125" style="enable-background:new 0 0 100 125;" xml:space="preserve">
<style type="text/css">
	.st0{fill:#FFFFFF;}
</style>
<g id="Layer_2">
	<circle class="st0" cx="48.5" cy="45.8" r="24.9"/>
</g>
<g id="Layer_1">
	<path d="M48.4,10.7c-19.7,0-35.6,15.9-35.6,35.6s35.6,57.7,35.6,57.7S84,66,84,46.3S68.1,10.7,48.4,10.7z M48.4,68.1
		C36,68.1,26,58.1,26,45.7s10-22.4,22.4-22.4s22.4,10,22.4,22.4S60.8,68.1,48.4,68.1z"/>
	<path d="M47.3,48.7c-1.5,1.7-3.3,3.7-4.9,5.5c-2.1,2.3-4,4.5-4.9,5.6c-0.4,0.5-0.8,1-0.9,1.7c-0.1,0.4,0.1,0.9,0.4,1.2
		c0.4,0.3,0.9,0.5,1.4,0.3c1-0.3,1.8-1.1,2.4-1.9c0.5-0.6,0.9-1.1,1.4-1.7c1.4-1.7,2.8-3.5,4.3-5.2c0.6-0.7,1.6-1.8,2.6-3
		C48.5,50.4,47.9,49.6,47.3,48.7z"/>
	<path d="M63.9,32.4c0-0.2,0.1-0.5,0.1-0.7v-0.2c0-0.8,0-1.2-0.4-1.4c-0.5-0.2-0.7,0.1-1.2,0.7c-0.1,0.1-0.2,0.2-0.2,0.3
		c-3.8,4.7-7.7,9.4-11.6,14.1c-0.3,0.3-0.4,0.5-0.6,0.7l0,0c-0.1,0.1-0.3,0.4-0.6,0.7c0.6,0.6,1.1,1.2,1.7,1.8
		c0.7-0.8,1.6-1.7,2.2-1.7c0,0,0,0,0,0c1.8,0.1,3.3-0.7,4.6-2.4l0-0.1c0.9-1.1,1.7-2.3,2.5-3.5C62.2,37.8,63.3,35.1,63.9,32.4z"/>
	<path d="M48.1,46.4c-0.2-0.2-0.3-0.3-0.4-0.4c-1.6-1.8-2.4-4.2-2.4-6.6c0-0.7-0.2-1.2-0.4-1.5c-2.1-2.5-6.2-7.3-6.3-7.5
		c-0.3-0.3-0.5-0.1-0.7,0c-0.1,0.1-0.3,0.3,0,0.6l5.2,6.1c0.5,0.5,0.4,1.4,0,1.8c-0.5,0.4-1.2,0.3-1.7-0.2l-5.1-6.2
		c-0.2-0.2-0.5-0.3-0.7-0.2c-0.1,0.1-0.1,0.2-0.1,0.3c0,0.2,0,0.3,0.2,0.4l5.1,6.1c0.2,0.2,0.3,0.5,0.3,0.9s-0.2,0.6-0.4,0.8
		s-0.5,0.3-0.9,0.3c-0.3,0-0.6-0.2-0.8-0.4l-5.2-6.3c-0.1-0.2-0.2-0.2-0.3-0.2s-0.2,0-0.3,0.1c-0.1,0-0.3,0.3,0,0.6
		c0.1,0.2,4.2,5,6.3,7.5c0.3,0.3,0.8,0.5,1.4,0.7c2.4,0.4,4.7,1.7,6.2,3.6l0,0c0,0,0.2,0.2,0.4,0.5C57.5,61.3,59.4,62.9,59.8,63
		c0.3,0.2,0.8,0.3,1.3,0c0.4-0.3,0.5-0.7,0.5-0.9C61.6,60.4,56.4,55.1,48.1,46.4z"/>
</g>
</svg>
